<svg height="512" id="photo_x5F_travel" version="1.1" width="512" xml:space="preserve" xmlns="http://www.w3.org/2000/svg"><path d="M400.375 105.154c-1.066-6.42-4.57-12.04-9.865-15.826-5.291-3.785-11.74-5.281-18.164-4.217L285.75 99.497l-3.889-7.804A22.984 22.984 0 00268.5 80.074a22.98 22.98 0 00-17.666 1.232l-72.204 35.985-20.594 3.421c-9.209 1.531-16.35 8.075-19.117 16.37l-68.955 34.366c-11.417 5.689-16.077 19.607-10.387 31.025L168.14 420.308a22.984 22.984 0 0013.362 11.618 23.145 23.145 0 007.366 1.209c3.533 0 7.044-.818 10.298-2.441l7.078-3.527c.884-.05 1.77-.131 2.656-.277l214.309-35.602a24.209 24.209 0 0015.826-9.863c3.787-5.295 5.283-11.745 4.217-18.166l-42.877-258.105zM256.857 93.389a9.586 9.586 0 014.289-1.017 9.64 9.64 0 013.068.504 9.567 9.567 0 015.564 4.839l2.043 4.096-47.797 7.94 32.833-16.362zm-71.068 325.736a9.572 9.572 0 01-5.566-4.84L71.66 196.453c-2.37-4.756-.429-10.553 4.326-12.923l62.604-31.2 1.892 11.386-43.546 21.702c-8.406 4.189-11.837 14.438-7.648 22.845l77.24 154.982a16.954 16.954 0 008.431 8.003l5.914 35.598c.796 4.789 2.95 9.132 6.189 12.602a9.85 9.85 0 01-1.273-.323zm242.266-45.554a10.797 10.797 0 01-7.059 4.398l-174.054 28.914-40.255 6.687a10.908 10.908 0 01-8.1-1.879 10.788 10.788 0 01-4.398-7.059l-5.553-33.427-2.306-13.882-30.896-185.978-2.314-13.93-1.809-10.887c-.028-.171-.039-.341-.059-.512-.675-5.719 3.257-11.034 8.996-11.987l22.586-3.752 37.107-6.164 46.87-7.787 11.309-1.878 13.93-2.313 82.508-13.707a10.785 10.785 0 018.1 1.879 10.787 10.787 0 014.398 7.059l42.877 258.104a10.792 10.792 0 01-1.878 8.101z"/><path d="M408.422 312.098c0-.007 0-.014-.002-.02l-6.762-40.699v-.002L378 128.959a17.694 17.694 0 00-7.209-11.567 17.701 17.701 0 00-13.277-3.081l-176.163 29.266a17.685 17.685 0 00-11.566 7.209 17.69 17.69 0 00-3.082 13.275l21.483 129.32v.003l2.053 12.358 6.969 41.951c1.446 8.703 9.01 14.891 17.557 14.891.965 0 1.945-.079 2.928-.242l95.498-15.865 64.553-10.724a.058.058 0 01.01-.002l15.588-2.59.516-.086c9.686-1.609 16.256-10.797 14.646-20.483l-.082-.494zm-17.291 7.745l-12.51 2.078-62.396-53.023 4.23-7.573 10.338-4.053 9.193 3.142c2.141.731 4.5.341 6.295-1.034l7.797-5.986 10.418.42 24.227 22.085 6.381 38.404a4.835 4.835 0 01-3.973 5.54zm-63.014 10.469l-36.57 6.075-14.359 2.386 32.324-57.862 51.672 43.908-33.067 5.493zM203.83 305.168l-2.325-13.996c-.06-.359.032-.732.25-1.023l15.699-20.897 9.203 3.137a6.755 6.755 0 006.197-.966l7.466-5.533 9.285 2.8a6.748 6.748 0 005.975-1.044l7.463-5.545 9.586 2.792a6.767 6.767 0 006.227-1.311l5.166-4.335L299.027 272l-38.885 69.604-43.397 7.209c-3.04.501-5.924-1.557-6.429-4.596l-6.486-39.049zm-23.064-146.531a4.276 4.276 0 012.797-1.743l176.164-29.265a4.267 4.267 0 013.211.745 4.268 4.268 0 011.744 2.798l20.465 123.197-44.244-40.335c-.082-.075-.172-.139-.258-.209-.098-.081-.193-.165-.295-.24-.104-.075-.211-.142-.318-.21-.107-.07-.213-.145-.324-.208-.104-.059-.211-.107-.316-.161-.121-.062-.24-.126-.365-.18-.098-.042-.197-.074-.295-.11-.141-.053-.279-.108-.422-.151-.086-.026-.174-.043-.26-.065-.158-.042-.316-.085-.479-.114-.078-.014-.158-.02-.238-.031-.17-.025-.342-.051-.514-.063-.084-.006-.168-.003-.25-.006-.17-.005-.338-.012-.508-.004-.115.004-.229.021-.344.032-.129.013-.256.018-.385.037-.01.001-.02.005-.029.006-.01.002-.02.002-.031.003-.127.021-.25.056-.375.084-.115.025-.234.045-.35.077-.129.036-.256.085-.383.129-.113.039-.229.071-.34.116-.129.053-.252.117-.377.178-.104.049-.209.092-.309.146-.133.072-.258.156-.385.237-.086.054-.176.102-.258.16-.143.098-.273.208-.406.316-.063.051-.129.096-.189.148a6.928 6.928 0 00-.424.416c-.037.04-.08.075-.117.117a6.623 6.623 0 00-.414.51c-.021.029-.047.055-.068.084a6.88 6.88 0 00-.416.653l-24.723 44.256-54.481-46.296a6.722 6.722 0 00-5.104-1.563h-.019a6.725 6.725 0 00-1.075.233c-.089.025-.184.03-.271.059-.295.097-.569.24-.846.376-.132.063-.276.106-.404.179-.26.148-.492.34-.729.521-.125.096-.264.17-.383.273-.283.25-.532.539-.772.836-.051.063-.115.111-.164.176l-.001.002-.004.004-.268.358-42.864 57.056-18.333-110.354a4.28 4.28 0 01.746-3.21z"/><path d="M333.717 191.869a22.88 22.88 0 003.756-.312 22.706 22.706 0 0014.842-9.25 22.7 22.7 0 003.951-17.034v.001c-2.064-12.428-13.844-20.868-26.281-18.794a22.69 22.69 0 00-14.84 9.249c-3.551 4.964-4.953 11.014-3.955 17.033 1.855 11.168 11.56 19.107 22.527 19.107zm-7.592-28.287a9.283 9.283 0 016.072-3.784 9.27 9.27 0 016.967 1.618 9.276 9.276 0 013.783 6.07v.002a9.284 9.284 0 01-1.615 6.968 9.283 9.283 0 01-6.072 3.783c-5.078.849-9.908-2.604-10.752-7.688a9.278 9.278 0 011.617-6.969zm-105.411 49.082c.966 0 1.949-.08 2.941-.245l45.961-7.634c10.775-1.792 15.418-11.043 14.436-19.256-.82-6.848-5.611-13.473-13.502-15.013-1.5-3.818-4.32-8.852-9.459-12.471-5.59-3.937-12.415-5.216-20.284-3.787-9.629 1.743-16.535 5.913-20.525 12.393-2.73 4.435-3.497 9.03-3.529 12.702-.522.16-1.059.339-1.608.537-8.392 3.027-12.845 11.496-10.589 20.133 2.005 7.672 8.554 12.641 16.158 12.641zm-.987-20.076c2.66-.958 4.945-1.176 4.941-1.176a6.746 6.746 0 005.938-8.645c-.014-.049-1.314-4.998 1.173-9.037 1.893-3.075 5.74-5.156 11.434-6.188 12.251-2.204 15.033 7.579 15.584 10.581a6.744 6.744 0 007.34 5.609l.355-.029c3.223-.23 3.99 2.047 4.156 3.43.166 1.39-.033 3.801-3.242 4.334l-45.963 7.635c-2.646.446-3.533-1.373-3.824-2.489-.291-1.115-.404-3.117 2.108-4.025zm-108.99 140.633l-30.108-62.579a6.75 6.75 0 00-12.166 5.855l30.108 62.578a6.752 6.752 0 009.01 3.156 6.752 6.752 0 003.156-9.01zm10.473 20.443a6.75 6.75 0 10-12.188 5.804l3.375 7.087a6.75 6.75 0 1012.188-5.802l-3.375-7.089zm304.722-175.038a6.75 6.75 0 006.654 5.673c.357 0 .721-.029 1.086-.089a6.747 6.747 0 005.584-7.741l-2.012-12.441c-.596-3.68-4.049-6.189-7.742-5.584a6.748 6.748 0 00-5.584 7.741l2.014 12.441zm16.279 20.89c-.596-3.683-4.064-6.188-7.742-5.585a6.75 6.75 0 00-5.584 7.741l12.551 77.525a6.752 6.752 0 007.742 5.584 6.75 6.75 0 005.584-7.741l-12.551-77.524z"/></svg>